<?xml version="1.0" encoding="UTF-8" standalone="no"?>
<svg
   version="1.2"
   width="210.00mm"
   height="297.00mm"
   viewBox="0 0 119.5016 169.0094"
   id="svg444"
   sodipodi:docname="08-score-from-template.svg"
   inkscape:version="1.2.1 (9c6d41e4, 2022-07-14)"
   xmlns:inkscape="http://www.inkscape.org/namespaces/inkscape"
   xmlns:sodipodi="http://sodipodi.sourceforge.net/DTD/sodipodi-0.dtd"
   xmlns:xlink="http://www.w3.org/1999/xlink"
   xmlns="http://www.w3.org/2000/svg"
   xmlns:svg="http://www.w3.org/2000/svg">
  <defs
     id="defs448" />
  <sodipodi:namedview
     id="namedview446"
     pagecolor="#ffffff"
     bordercolor="#000000"
     borderopacity="0.25"
     inkscape:showpageshadow="2"
     inkscape:pageopacity="0.0"
     inkscape:pagecheckerboard="0"
     inkscape:deskcolor="#d1d1d1"
     inkscape:document-units="mm"
     showgrid="false"
     inkscape:zoom="2.3532354"
     inkscape:cx="228.62141"
     inkscape:cy="135.983"
     inkscape:window-width="1390"
     inkscape:window-height="916"
     inkscape:window-x="1918"
     inkscape:window-y="57"
     inkscape:window-maximized="0"
     inkscape:current-layer="svg444" />
  <style
     type="text/css"
     id="style242"><![CDATA[
tspan { white-space: pre; }
]]></style>
  <!-- Page: 1/1 -->
  <g
     transform="translate(47.7323, 6.2124)"
     id="g248">
    <text
       font-family="serif"
       font-weight="bold"
       font-size="3.4927"
       text-anchor="start"
       fill="currentColor"
       id="text246"><tspan
         id="tspan244">This is awesome</tspan></text>
  </g>
  <g
     transform="translate(107.9384, 9.7124)"
     id="g254">
    <text
       font-family="serif"
       font-size="2.2001"
       text-anchor="start"
       fill="currentColor"
       id="text252"><tspan
         id="tspan250">Bartev</tspan></text>
  </g>
  <g
     transform="translate(14.2264, 16.5793)"
     id="g258">
    <line
       stroke-linejoin="round"
       stroke-linecap="round"
       stroke-width="0.1000"
       stroke="currentColor"
       x1="0.0500"
       y1="0"
       x2="20.5638"
       y2="0"
       id="line256" />
  </g>
  <g
     transform="translate(14.2264, 15.5793)"
     id="g262">
    <line
       stroke-linejoin="round"
       stroke-linecap="round"
       stroke-width="0.1000"
       stroke="currentColor"
       x1="0.0500"
       y1="0"
       x2="20.5638"
       y2="0"
       id="line260" />
  </g>
  <g
     transform="translate(14.2264, 14.5793)"
     id="g266">
    <line
       stroke-linejoin="round"
       stroke-linecap="round"
       stroke-width="0.1000"
       stroke="currentColor"
       x1="0.0500"
       y1="0"
       x2="20.5638"
       y2="0"
       id="line264" />
  </g>
  <g
     transform="translate(14.2264, 13.5793)"
     id="g270">
    <line
       stroke-linejoin="round"
       stroke-linecap="round"
       stroke-width="0.1000"
       stroke="currentColor"
       x1="0.0500"
       y1="0"
       x2="20.5638"
       y2="0"
       id="line268" />
  </g>
  <g
     transform="translate(14.2264, 12.5793)"
     id="g274">
    <line
       stroke-linejoin="round"
       stroke-linecap="round"
       stroke-width="0.1000"
       stroke="currentColor"
       x1="0.0500"
       y1="0"
       x2="20.5638"
       y2="0"
       id="line272" />
  </g>
  <g
     transform="translate(14.2264, 25.5793)"
     id="g278">
    <line
       stroke-linejoin="round"
       stroke-linecap="round"
       stroke-width="0.1000"
       stroke="currentColor"
       x1="0.0500"
       y1="0"
       x2="20.5638"
       y2="0"
       id="line276" />
  </g>
  <g
     transform="translate(14.2264, 24.5793)"
     id="g282">
    <line
       stroke-linejoin="round"
       stroke-linecap="round"
       stroke-width="0.1000"
       stroke="currentColor"
       x1="0.0500"
       y1="0"
       x2="20.5638"
       y2="0"
       id="line280" />
  </g>
  <g
     transform="translate(14.2264, 23.5793)"
     id="g286">
    <line
       stroke-linejoin="round"
       stroke-linecap="round"
       stroke-width="0.1000"
       stroke="currentColor"
       x1="0.0500"
       y1="0"
       x2="20.5638"
       y2="0"
       id="line284" />
  </g>
  <g
     transform="translate(14.2264, 22.5793)"
     id="g290">
    <line
       stroke-linejoin="round"
       stroke-linecap="round"
       stroke-width="0.1000"
       stroke="currentColor"
       x1="0.0500"
       y1="0"
       x2="20.5638"
       y2="0"
       id="line288" />
  </g>
  <g
     transform="translate(14.2264, 21.5793)"
     id="g294">
    <line
       stroke-linejoin="round"
       stroke-linecap="round"
       stroke-width="0.1000"
       stroke="currentColor"
       x1="0.0500"
       y1="0"
       x2="20.5638"
       y2="0"
       id="line292" />
  </g>
  <g
     transform="translate(2.7015, 15.0890)"
     id="g300">
    <text
       font-family="serif"
       font-size="2.2001"
       text-anchor="start"
       fill="currentColor"
       id="text298"><tspan
         id="tspan296">Soprano Sax</tspan></text>
  </g>
  <g
     transform="translate(5.7061, 24.3264)"
     id="g306">
    <text
       font-family="serif"
       font-size="2.2001"
       text-anchor="start"
       fill="currentColor"
       id="text304"><tspan
         id="tspan302">Alto Sax</tspan></text>
  </g>
  <g
     transform="translate(14.1664, 19.0793)"
     id="g310">
    <rect
       x="0.0000"
       y="-6.5500"
       width="0.1600"
       height="13.1000"
       ry="0.0500"
       fill="currentColor"
       id="rect308" />
  </g>
  <g
     transform="translate(22.8961, 14.5793)"
     id="g314">
    <rect
       x="-0.0650"
       y="-0.3139"
       width="0.1300"
       height="3.3139"
       ry="0.0400"
       fill="currentColor"
       id="rect312" />
  </g>
  <a
     style="color:inherit;"
     xlink:href="textedit:///Users/bartev/dev/github-bv/lily-jazz/01-tutorial-series/08-score-from-template.ly:12:2:3"
     id="a322">
    <g
       transform="translate(19.2264, 11.6992)"
       id="g320">
      <text
         font-family="serif"
         font-weight="bold"
         font-size="2.2001"
         text-anchor="start"
         fill="currentColor"
         id="text318"><tspan
           id="tspan316">Insane</tspan></text>
    </g>
  </a>
  <g
     transform="translate(22.8961, 23.5793)"
     id="g326"
     style="fill:#0000ff">
    <rect
       x="-0.0650"
       y="-0.3139"
       width="0.1300"
       height="3.3139"
       ry="0.0400"
       fill="currentColor"
       id="rect324"
       style="fill:#0000ff" />
  </g>
  <a
     style="color:inherit;"
     xlink:href="textedit:///Users/bartev/dev/github-bv/lily-jazz/01-tutorial-series/08-score-from-template.ly:11:2:3"
     id="a336">
    <g
       transform="translate(19.3630, 23.5793)"
       id="g330">
      <path
         transform="scale(0.0040, -0.0040)"
         d="M163 292c-93 0 -102 -51 -119 -51c-8 0 -15 6 -15 15v228c0 10 8 18 17 16c46 -8 91 -13 137 -13s92 5 138 13c15 2 23 -10 17 -16c-68 -68 -166 -93 -263 -93c-9 0 -17 -8 -17 -17v-96c28 28 66 43 105 43c116 0 186 -51 186 -161c0 -94 -87 -160 -186 -160 c-82 0 -163 39 -163 113c0 36 30 66 66 66s65 -30 65 -66c0 -25 -40 -28 -40 -53c0 -30 37 -37 72 -37c57 0 70 71 70 137c0 63 -15 132 -70 132z"
         fill="currentColor"
         id="path328" />
    </g>
    <g
       transform="translate(19.2264, 25.5953)"
       id="g334">
      <path
         transform="scale(0.0040, -0.0040)"
         d="M196 117h117c0 -48 27 -94 72 -94c8 0 12 -5 12 -11s-4 -12 -12 -12c-44 0 -87 13 -131 13s-87 -13 -131 -13c-8 0 -12 6 -12 12s4 11 12 11c45 0 73 46 73 94zM-2 148c0 12 140 143 140 336c0 10 7 19 16 16c23 -7 47 -13 71 -13s48 6 71 13c14 4 23 -9 17 -16 l-284 -330h167v131c0 34 34 27 68 72c22 30 23 56 36 56c6 0 13 -5 13 -14v-245h72c10 0 15 -7 15 -14s-5 -15 -15 -15h-72v-8h-117v8h-167c-23 0 -31 14 -31 23z"
         fill="currentColor"
         id="path332" />
    </g>
  </a>
  <a
     style="color:inherit;"
     xlink:href="textedit:///Users/bartev/dev/github-bv/lily-jazz/01-tutorial-series/08-score-from-template.ly:9:2:3"
     id="a338" />
  <g
     transform="matrix(1,0,0,0.54542754,14.962419,24.134387)"
     id="g342"
     style="fill:#008000">
    <path
       transform="scale(0.004,-0.004)"
       d="m 266,-635 h -6 c -108,0 -195,88 -195,197 0,58 53,103 112,103 54,0 95,-47 95,-103 0,-52 -43,-95 -95,-95 -11,0 -21,2 -31,6 26,-39 68,-65 117,-65 h 4 z m 195,432 c 68,24 113,90 113,164 0,90 -66,179 -173,190 19,-89 48,-242 60,-354 z M 74,28 c 0,-145 141,-247 264,-247 1,0 47,0 82,6 -7,64 -29,203 -63,364 -79,-8 -124,-61 -124,-119 0,-44 25,-91 81,-123 5,-5 7,-10 7,-15 0,-11 -10,-22 -22,-22 -15,0 -126,62 -126,187 0,88 58,174 160,197 -14,58 -29,117 -46,175 C 180,310 74,188 74,28 Z m 176,525 c -29,96 -52,170 -52,346 0,115 55,224 149,292 6,5 14,5 20,0 68,-80 133,-245 133,-358 0,-143 -86,-255 -180,-364 21,-68 39,-138 56,-207 2,0 7,1 13,1 155,0 256,-128 256,-261 0,-113 -74,-212 -180,-246 3,-35 5,-70 5,-105 0,-19 -1,-39 -2,-58 -7,-119 -88,-225 -202,-228 l 1,43 c 93,2 153,92 159,191 1,18 2,37 2,55 0,31 -1,61 -4,92 -5,-1 -44,-8 -89,-8 C 142,-262 2,-82 2,112 2,289 133,418 250,553 Z m 178,363 c 0,34 1,66 -20,129 -99,-48 -162,-149 -162,-259 0,-52 12,-115 36,-194 80,97 146,198 146,324 z"
       fill="currentColor"
       id="path340"
       style="fill:#008000" />
  </g>
  <a
     style="color:inherit;fill:#0000ff"
     xlink:href="textedit:///Users/bartev/dev/github-bv/lily-jazz/01-tutorial-series/08-score-from-template.ly:26:2:3"
     id="a348">
    <g
       transform="translate(22.8311, 23.0793)"
       id="g346"
       style="fill:#0000ff">
      <path
         transform="scale(0.0040, -0.0040)"
         d="M218 136c66 0 108 -36 108 -89c0 -89 -113 -183 -218 -183c-66 0 -108 36 -108 89c0 89 113 183 218 183z"
         fill="currentColor"
         id="path344"
         style="fill:#0000ff" />
    </g>
  </a>
  <a
     style="color:inherit;"
     xlink:href="textedit:///Users/bartev/dev/github-bv/lily-jazz/01-tutorial-series/08-score-from-template.ly:19:5:6"
     id="a354">
    <g
       transform="translate(25.8334, 13.5793)"
       id="g352">
      <path
         transform="scale(0.0040, -0.0040)"
         d="M218 136c66 0 108 -36 108 -89c0 -89 -113 -183 -218 -183c-66 0 -108 36 -108 89c0 89 113 183 218 183z"
         fill="currentColor"
         id="path350" />
    </g>
  </a>
  <a
     style="color:inherit;"
     xlink:href="textedit:///Users/bartev/dev/github-bv/lily-jazz/01-tutorial-series/08-score-from-template.ly:26:5:6"
     id="a360">
    <g
       transform="translate(25.8334, 22.5793)"
       id="g358">
      <path
         transform="scale(0.0040, -0.0040)"
         d="M218 136c66 0 108 -36 108 -89c0 -89 -113 -183 -218 -183c-66 0 -108 36 -108 89c0 89 113 183 218 183z"
         fill="currentColor"
         id="path356" />
    </g>
  </a>
  <g
     transform="translate(25.8984, 14.5793)"
     id="g364">
    <rect
       x="-0.0650"
       y="-0.8139"
       width="0.1300"
       height="3.3139"
       ry="0.0400"
       fill="currentColor"
       id="rect362" />
  </g>
  <g
     transform="translate(25.8984, 23.5793)"
     id="g368">
    <rect
       x="-0.0650"
       y="-0.8139"
       width="0.1300"
       height="3.3139"
       ry="0.0400"
       fill="currentColor"
       id="rect366" />
  </g>
  <a
     style="color:inherit;"
     xlink:href="textedit:///Users/bartev/dev/github-bv/lily-jazz/01-tutorial-series/08-score-from-template.ly:19:2:3"
     id="a374">
    <g
       transform="translate(22.8311, 14.0793)"
       id="g372">
      <path
         transform="scale(0.0040, -0.0040)"
         d="M218 136c66 0 108 -36 108 -89c0 -89 -113 -183 -218 -183c-66 0 -108 36 -108 89c0 89 113 183 218 183z"
         fill="currentColor"
         id="path370" />
    </g>
  </a>
  <a
     style="color:inherit;"
     xlink:href="textedit:///Users/bartev/dev/github-bv/lily-jazz/01-tutorial-series/08-score-from-template.ly:11:2:3"
     id="a384">
    <g
       transform="translate(19.3630, 14.5793)"
       id="g378">
      <path
         transform="scale(0.0040, -0.0040)"
         d="M163 292c-93 0 -102 -51 -119 -51c-8 0 -15 6 -15 15v228c0 10 8 18 17 16c46 -8 91 -13 137 -13s92 5 138 13c15 2 23 -10 17 -16c-68 -68 -166 -93 -263 -93c-9 0 -17 -8 -17 -17v-96c28 28 66 43 105 43c116 0 186 -51 186 -161c0 -94 -87 -160 -186 -160 c-82 0 -163 39 -163 113c0 36 30 66 66 66s65 -30 65 -66c0 -25 -40 -28 -40 -53c0 -30 37 -37 72 -37c57 0 70 71 70 137c0 63 -15 132 -70 132z"
         fill="currentColor"
         id="path376" />
    </g>
    <g
       transform="translate(19.2264, 16.5953)"
       id="g382">
      <path
         transform="scale(0.0040, -0.0040)"
         d="M196 117h117c0 -48 27 -94 72 -94c8 0 12 -5 12 -11s-4 -12 -12 -12c-44 0 -87 13 -131 13s-87 -13 -131 -13c-8 0 -12 6 -12 12s4 11 12 11c45 0 73 46 73 94zM-2 148c0 12 140 143 140 336c0 10 7 19 16 16c23 -7 47 -13 71 -13s48 6 71 13c14 4 23 -9 17 -16 l-284 -330h167v131c0 34 34 27 68 72c22 30 23 56 36 56c6 0 13 -5 13 -14v-245h72c10 0 15 -7 15 -14s-5 -15 -15 -15h-72v-8h-117v8h-167c-23 0 -31 14 -31 23z"
         fill="currentColor"
         id="path380" />
    </g>
  </a>
  <a
     style="color:inherit;"
     xlink:href="textedit:///Users/bartev/dev/github-bv/lily-jazz/01-tutorial-series/08-score-from-template.ly:19:7:8"
     id="a390">
    <g
       transform="translate(28.8356, 13.0793)"
       id="g388">
      <path
         transform="scale(0.0040, -0.0040)"
         d="M218 136c66 0 108 -36 108 -89c0 -89 -113 -183 -218 -183c-66 0 -108 36 -108 89c0 89 113 183 218 183z"
         fill="currentColor"
         id="path386" />
    </g>
  </a>
  <a
     style="color:inherit;"
     xlink:href="textedit:///Users/bartev/dev/github-bv/lily-jazz/01-tutorial-series/08-score-from-template.ly:26:7:8"
     id="a396">
    <g
       transform="translate(28.8356, 22.0793)"
       id="g394">
      <path
         transform="scale(0.0040, -0.0040)"
         d="M218 136c66 0 108 -36 108 -89c0 -89 -113 -183 -218 -183c-66 0 -108 36 -108 89c0 89 113 183 218 183z"
         fill="currentColor"
         id="path392" />
    </g>
  </a>
  <g
     transform="translate(28.9006, 14.5793)"
     id="g400">
    <rect
       x="-0.0650"
       y="-1.3139"
       width="0.1300"
       height="3.3139"
       ry="0.0400"
       fill="currentColor"
       id="rect398" />
  </g>
  <g
     transform="translate(28.9006, 23.5793)"
     id="g404">
    <rect
       x="-0.0650"
       y="-1.3139"
       width="0.1300"
       height="3.3139"
       ry="0.0400"
       fill="currentColor"
       id="rect402" />
  </g>
  <g
     transform="matrix(1.49752,0,0,1.5769574,14.382609,16.225204)"
     id="g408"
     style="fill:#00ffff">
    <path
       transform="scale(0.004,-0.004)"
       d="m 266,-635 h -6 c -108,0 -195,88 -195,197 0,58 53,103 112,103 54,0 95,-47 95,-103 0,-52 -43,-95 -95,-95 -11,0 -21,2 -31,6 26,-39 68,-65 117,-65 h 4 z m 195,432 c 68,24 113,90 113,164 0,90 -66,179 -173,190 19,-89 48,-242 60,-354 z M 74,28 c 0,-145 141,-247 264,-247 1,0 47,0 82,6 -7,64 -29,203 -63,364 -79,-8 -124,-61 -124,-119 0,-44 25,-91 81,-123 5,-5 7,-10 7,-15 0,-11 -10,-22 -22,-22 -15,0 -126,62 -126,187 0,88 58,174 160,197 -14,58 -29,117 -46,175 C 180,310 74,188 74,28 Z m 176,525 c -29,96 -52,170 -52,346 0,115 55,224 149,292 6,5 14,5 20,0 68,-80 133,-245 133,-358 0,-143 -86,-255 -180,-364 21,-68 39,-138 56,-207 2,0 7,1 13,1 155,0 256,-128 256,-261 0,-113 -74,-212 -180,-246 3,-35 5,-70 5,-105 0,-19 -1,-39 -2,-58 -7,-119 -88,-225 -202,-228 l 1,43 c 93,2 153,92 159,191 1,18 2,37 2,55 0,31 -1,61 -4,92 -5,-1 -44,-8 -89,-8 C 142,-262 2,-82 2,112 2,289 133,418 250,553 Z m 178,363 c 0,34 1,66 -20,129 -99,-48 -162,-149 -162,-259 0,-52 12,-115 36,-194 80,97 146,198 146,324 z"
       fill="currentColor"
       id="path406"
       style="fill:#00ffff" />
  </g>
  <a
     style="color:inherit;"
     xlink:href="textedit:///Users/bartev/dev/github-bv/lily-jazz/01-tutorial-series/08-score-from-template.ly:9:2:3"
     id="a410" />
  <a
     style="color:inherit;"
     xlink:href="textedit:///Users/bartev/dev/github-bv/lily-jazz/01-tutorial-series/08-score-from-template.ly:19:9:10"
     id="a416">
    <g
       transform="translate(31.8379, 12.5793)"
       id="g414">
      <path
         transform="scale(0.0040, -0.0040)"
         d="M218 136c66 0 108 -36 108 -89c0 -89 -113 -183 -218 -183c-66 0 -108 36 -108 89c0 89 113 183 218 183z"
         fill="currentColor"
         id="path412" />
    </g>
  </a>
  <a
     style="color:inherit;fill:#ff0000"
     xlink:href="textedit:///Users/bartev/dev/github-bv/lily-jazz/01-tutorial-series/08-score-from-template.ly:26:9:10"
     id="a422">
    <g
       transform="translate(31.8379, 21.5793)"
       id="g420"
       style="fill:#ff0000">
      <path
         transform="scale(0.0040, -0.0040)"
         d="M218 136c66 0 108 -36 108 -89c0 -89 -113 -183 -218 -183c-66 0 -108 36 -108 89c0 89 113 183 218 183z"
         fill="currentColor"
         id="path418"
         style="fill:#ff0000" />
    </g>
  </a>
  <g
     transform="translate(31.9029, 14.5793)"
     id="g426">
    <rect
       x="-0.0650"
       y="-1.8139"
       width="0.1300"
       height="3.3139"
       ry="0.0400"
       fill="currentColor"
       id="rect424" />
  </g>
  <g
     transform="translate(31.9029, 23.5793)"
     id="g430"
     style="fill:#ff0000">
    <rect
       x="-0.0650"
       y="-1.8139"
       width="0.1300"
       height="3.3139"
       ry="0.0400"
       fill="currentColor"
       id="rect428"
       style="fill:#ff0000" />
  </g>
  <g
     transform="translate(34.5701, 165.1202)"
     id="g436">
    <a
       xlink:href="https://lilypond.org/"
       id="a434">
      <rect
         x="0.0000"
         y="-0.4748"
         width="50.3614"
         height="2.0024"
         fill="none"
         stroke="none"
         stroke-width="0.0"
         id="rect432" />
    </a>
  </g>
  <g
     transform="translate(34.5701, 165.1202)"
     id="g442">
    <text
       font-family="serif"
       font-size="2.2001"
       text-anchor="start"
       fill="currentColor"
       id="text440"><tspan
         id="tspan438">Music engraving by LilyPond 2.22.2—www.lilypond.org</tspan></text>
  </g>
</svg>
